<svg xmlns="http://www.w3.org/2000/svg" viewBox="0 0 635.74 113.43"><defs><style>.cls-1{fill:#009245;}.cls-2{fill:blue;}.cls-3{fill:#39b54a;}</style></defs><g id="Layer_2" data-name="Layer 2"><g id="Layer_1-2" data-name="Layer 1"><path class="cls-1" d="M83.16,11V30.26H52.88V111.4H30.28V30.26H0V11Z"/><path class="cls-1" d="M112.72,33.16a50,50,0,0,1,15.94,2.17,24.79,24.79,0,0,1,10.21,6.23,23,23,0,0,1,5.44,9.85,48.79,48.79,0,0,1,1.59,12.9v44.91q-4.64,1-12.9,2.39A123.52,123.52,0,0,1,113,113a63.32,63.32,0,0,1-13.4-1.3,29.12,29.12,0,0,1-10.36-4.28,19.57,19.57,0,0,1-6.67-7.75,26.84,26.84,0,0,1-2.31-11.73A22.25,22.25,0,0,1,83,76.62a20.46,20.46,0,0,1,7.17-7.38,32.2,32.2,0,0,1,10.29-4,57.72,57.72,0,0,1,12-1.23,68.63,68.63,0,0,1,7.46.36,33.63,33.63,0,0,1,5.29.94v-2a12,12,0,0,0-3.33-8.84q-3.34-3.33-11.59-3.34a74,74,0,0,0-10.87.8,46.3,46.3,0,0,0-9.27,2.25L87.37,36.78c1.25-.38,2.82-.8,4.7-1.23s3.94-.82,6.16-1.16,4.57-.63,7-.87S110.21,33.16,112.72,33.16Zm1.74,63.17q3.18,0,6.08-.15a41.58,41.58,0,0,0,4.64-.43V79.38c-.87-.19-2.17-.39-3.91-.58a44.35,44.35,0,0,0-4.78-.29,43.17,43.17,0,0,0-5.73.36,14.79,14.79,0,0,0-4.7,1.38A8,8,0,0,0,102.87,83a7.62,7.62,0,0,0-1.16,4.35q0,5.07,3.4,7T114.46,96.33Z"/><path class="cls-1" d="M187.34,95.89c4,0,6.76-.38,8.4-1.16s2.46-2.26,2.46-4.49c0-1.73-1.06-3.26-3.19-4.56a60.66,60.66,0,0,0-9.7-4.42,98.32,98.32,0,0,1-9.2-3.91,26.93,26.93,0,0,1-7-4.85,19.67,19.67,0,0,1-4.49-6.74A24.82,24.82,0,0,1,163,56.34q0-10.73,8-17t21.88-6.23a70.22,70.22,0,0,1,13.33,1.23,62.46,62.46,0,0,1,10.14,2.68l-3.76,16.81a81.22,81.22,0,0,0-8.19-2.32,44.32,44.32,0,0,0-9.92-1q-10.16,0-10.15,5.65a5.77,5.77,0,0,0,.44,2.31,4.94,4.94,0,0,0,1.74,2,24.35,24.35,0,0,0,3.55,2q2.23,1.1,5.72,2.41a88.28,88.28,0,0,1,11.73,5.18,28.33,28.33,0,0,1,7.32,5.52,17.12,17.12,0,0,1,3.77,6.58,29.34,29.34,0,0,1,1.08,8.38q0,11.28-8.47,17.06t-24,5.79a68.87,68.87,0,0,1-16.88-1.74,68.4,68.4,0,0,1-9.34-2.9l3.62-17.53a70.66,70.66,0,0,0,11.3,3.4A55,55,0,0,0,187.34,95.89Z"/><path class="cls-2" d="M321.06,111.4V11h67.23V30H343.66c0,4.53-2,14.5.54,18.22,3.6,5.31,18.45,8,24.28,10,11.69,4,20.62,7.22,16.17,23.76-1.06,4-5,5.77-9.07,5.69-7.67-.14-6.53-7.41-9.41-11.7-5.43-8.11-14.26-7.11-22.6-6,.14,3.84.1,41.44.08,41.44Z"/><path class="cls-2" d="M434.41,105.76a8,8,0,0,1-8.86,6.62,40.46,40.46,0,0,1-7.63-1.56,22.67,22.67,0,0,1-9.28-5.29A17.51,17.51,0,0,1,404,97.27a44.09,44.09,0,0,1-1.23-10.94V9.27a8,8,0,0,1,6.74-7.91l5.55-.9a8,8,0,0,1,9.29,7.92V82a28.3,28.3,0,0,0,.44,5.21,9,9,0,0,0,1.66,3.91A8.75,8.75,0,0,0,430,93.72l.05,0a8.08,8.08,0,0,1,4.91,8.73Z"/><path class="cls-2" d="M519.84,73.15a49.47,49.47,0,0,1-2.61,16.44,35.7,35.7,0,0,1-7.53,12.75,33.88,33.88,0,0,1-11.81,8.19,39.44,39.44,0,0,1-15.43,2.9,39,39,0,0,1-15.28-2.9,33.79,33.79,0,0,1-11.81-8.19,37.2,37.2,0,0,1-7.68-12.75,47,47,0,0,1-2.76-16.44,45.54,45.54,0,0,1,2.83-16.37,37.11,37.11,0,0,1,7.82-12.61,35.21,35.21,0,0,1,11.88-8.11,40.61,40.61,0,0,1,30.14,0,34.35,34.35,0,0,1,11.81,8.11,37,37,0,0,1,7.68,12.61A46.66,46.66,0,0,1,519.84,73.15Zm-22,0q0-10-4-15.72a13,13,0,0,0-11.37-5.73A13.22,13.22,0,0,0,471,57.43q-4,5.72-4.05,15.72T471,89a13.13,13.13,0,0,0,11.45,5.87A12.92,12.92,0,0,0,493.83,89Q497.82,83.14,497.82,73.15Z"/><path class="cls-2" d="M584.67,80.07a3.58,3.58,0,0,0-6.88,0q-1.34,4.71-2.75,9.41-2.89,9.65-6.07,19.4a3.6,3.6,0,0,1-3.42,2.48H553.74a3.59,3.59,0,0,1-3.32-2.21q-2.22-5.35-4.73-12.28-3.06-8.4-6.32-18.33t-6.69-21q-2.71-8.84-5.3-17.8a3.59,3.59,0,0,1,3.45-4.58h15.11a3.57,3.57,0,0,1,3.5,2.79c.6,2.69,1.25,5.55,1.93,8.58q1.38,6.16,2.91,12.68t3.21,13.11l0,.13a3.59,3.59,0,0,0,6.94.06l.15-.55c1.21-4.44,2.37-8.82,3.48-13.11s2.17-8.45,3.18-12.46c.76-3,1.44-5.79,2.06-8.46a3.56,3.56,0,0,1,3.49-2.77h9.91a3.58,3.58,0,0,1,3.5,2.78q.91,4,2,8.45,1.45,6,3,12.46c1.07,4.29,2.18,8.67,3.34,13.11,0,.18.09.35.13.53a3.59,3.59,0,0,0,6.94,0l.05-.17q1.74-6.59,3.28-13.11t2.91-12.68L613.82,38a3.58,3.58,0,0,1,3.5-2.79h14.82a3.59,3.59,0,0,1,3.46,4.58q-2.58,9-5.31,17.8-3.4,11.08-6.68,21t-6.39,18.33q-2.58,6.93-4.81,12.28a3.58,3.58,0,0,1-3.31,2.21H597.28a3.59,3.59,0,0,1-3.42-2.48q-3.2-9.75-6.29-19.4Q586.07,84.81,584.67,80.07Z"/><path class="cls-3" d="M258.9,54.4a2.48,2.48,0,0,0,4.3,1.72l.7-.77c2.27-2.49,4.46-5,6.6-7.44,8.91-10.27,9.93-12.72,23.67-12.72a62,62,0,0,1,7.27.14,2.47,2.47,0,0,1,1.71,3.83C300.08,43.79,295.8,47.88,292,52q-6.54,7.17-14.17,14.74a2.46,2.46,0,0,0,0,3.54q3.47,3.34,7.13,7.63,4.63,5.44,9,11.25t8,11.63c1.38,2.21,2.74,4.43,4.05,6.68a2.48,2.48,0,0,1-2,3.72c-2.72.16-5.73.18-8.37.18-3.54,0-7.36-.39-10.93,0a2.44,2.44,0,0,1-2.1-.86c-6.67-8-11.08-17.55-18-25.41q-1.55-1.76-3.08-3.3a2.48,2.48,0,0,0-4.23,1.76v25.35a2.47,2.47,0,0,1-2.47,2.48H238.19a2.47,2.47,0,0,1-2.46-2.48q0-52.2,0-104.41a2.47,2.47,0,0,1,2-2.42C248,.14,253.12-2.83,257.31,6c2.46,5.19,0,17.63,0,23.39C257.31,33.07,259,45.69,258.9,54.4Z"/><path class="cls-2" d="M304,32.54l-6-6a5.79,5.79,0,0,0-8.2,0L248.15,68.23,229.43,57.42a8.46,8.46,0,0,0-11.55,3.1l-1,1.81a8.45,8.45,0,0,0,3.09,11.55l27,15.6a8.46,8.46,0,0,0,11.55-3.1l1-1.78a12.43,12.43,0,0,0,2.57-2L304,40.75A5.8,5.8,0,0,0,304,32.54Z"/></g></g></svg>